<svg
  height='800px'
  version='1.1'
  viewBox='0 0 800 800'
  xmlns='http://www.w3.org/2000/svg'
  xmlns:xlink='http://www.w3.org/1999/xlink'
  xmlns:svgjs='http://svgjs.dev/svgjs'
  width='800px'
  >
  <defs>
    <linearGradient id='gradient'
      x1='50%'
      x2='50%'
      y1='0%'
      y2='100%'
      >
      <stop
        offset='0%'
        stop-color='hsl(185, 53%, 55%)'
        stop-opacity='1'
        >
      </stop>
      <stop
        offset='100%'
        stop-color='hsl(0, 73%, 55%)'
        stop-opacity='1'
        >
      </stop>
    </linearGradient>
    <linearGradient id='flurry'
      x1='50%'
      x2='50%'
      y1='0%'
      y2='100%'
      gradientTransform='rotate(270)'
      >
      <stop
        offset='0%'
        stop-color='hsl(238, 82%, 13%)'
        stop-opacity='1'
        >
      </stop>
      <stop
        offset='45%'
        stop-color='hsl(1.4, 100%, 67%)'
        stop-opacity='1'
        >
      </stop>
      <stop
        stop-color='hsl(167, 52%, 78%)'
        stop-opacity='1'
        offset='100%'
        >
      </stop>
    </linearGradient>
    <mask id='shape'>
      <polyline
        fill='white'
        points='
          400,0
          400,125
          630,260
          630,540
          400,675
          400,800
          800,800
          800,0
        '>
      </polyline>
      <polyline
        fill='white'
        points='
          400,0
          400,125
          160,260
          160,540
          400,675
          400,800
          0,800
          0,0
        '>
      </polyline>
    </mask>
  </defs>
  <rect id='backdrop'
    fill='hsl(238, 82%, 13%)'
    height='100%'
    width='100%'
    >
  </rect>
  <g id='shade'
    fill='none'
    fill-rule='evenond'
    stroke-linecap='round'
    stroke-linejoin='round'
    stroke-width='8'
    stroke='url(#gradient)'>
    <path
      d="
        M400 136.7286376953125
        L628.0000145690528 268.36431552416275
        V531.6356711818634
        L400 663.2713490107136
        L171.9999854309471 531.6356711818634
        V268.36431552416275
        L400 136.7286376953125Z
      "
      opacity='1.00'
      transform='rotate(120, 400, 400)'
      >
    </path>
    <path
      d="
        M400 147.69827270507812
        L618.500013962009 273.84913062439296
        V526.1508464630226
        L400 652.3017043823374
        L181.499986037991 526.1508464630226
        V273.84913062439296
        L400 147.69827270507812Z
      "
      opacity='0.96'
      transform='rotate(115, 400, 400)'
      >
    </path>
    <path
      d="
        M400 158.66793823242188
        L609.0000133549652 279.3339762422013
        V520.6660522617601
        L400 641.3320902715395
        L190.99998664503488 520.6660522617601
        V279.3339762422013
        L400 158.66793823242188Z
      "
      opacity='0.92'
      transform='rotate(110, 400, 400)'
      >
    </path>
    <path
      d="
        M400 169.6375732421875
        L599.5000127479212 284.8187913424315
        V515.1812275429195
        L400 630.3624456431635
        L200.4999872520787 515.1812275429195
        V284.8187913424315
        L400 169.6375732421875Z
      "
      opacity='0.88'
      transform='rotate(105, 400, 400)'
      >
    </path>
    <path
      d="
        M400 180.60720825195312
        L590.0000121408774 290.3036064426617
        V509.69640282407886
        L400 619.3928010147874
        L209.9999878591226 509.69640282407886
        V290.3036064426617
        L400 180.60720825195312Z
      "
      opacity='0.83'
      transform='rotate(100, 400, 400)'
      >
    </path>
    <path
      d="
        M400 191.57684326171875
        L580.5000115338335 295.7884215428919
        V504.21157810523823
        L400 608.4231563864113
        L219.49998846616649 504.21157810523823
        V295.7884215428919
        L400 191.57684326171875Z
      "
      opacity='0.79'
      transform='rotate(95, 400, 400)'
      >
    </path>
    <path
      d="
        M400 202.54647827148438
        L571.0000109267896 301.2732366431221
        V498.7267533863975
        L400 597.4535117580352
        L228.99998907321032 498.7267533863975
        V301.2732366431221
        L400 202.54647827148438Z
      "
      opacity='0.75'
      transform='rotate(90, 400, 400)'
      >
    </path>
    <path
      d="
        M400 213.51611328125
        L561.5000103197458 306.75805174335227
        V493.24192866755675
        L400 586.4838671296591
        L238.4999896802542 493.24192866755675
        V306.75805174335227
        L400 213.51611328125Z"
      opacity='0.71'
      transform='rotate(85, 400, 400)'
      >
    </path>
    <path
      d="
        M400 224.48574829101562
        L552.000009712702 312.2428668435825
        V487.7571039487161
        L400 575.514222501283
        L247.9999902872981 487.7571039487161
        V312.2428668435825
        L400 224.48574829101562Z
      "
      opacity='0.67'
      transform='rotate(80, 400, 400)'
      >
    </path>
    <path
      d="
        M400 235.45541381835938
        L542.500009105658 317.7277124613908
        V482.2723097474536
        L400 564.5446083904851
        L257.499990894342 482.2723097474536
        V317.7277124613908
        L400 235.45541381835938Z
      "
      opacity='0.63'
      transform='rotate(75, 400, 400)'
      >
    </path>
    <path
      d="
        M400 246.425048828125
        L533.0000084986141 323.212527561621
        V476.787485028613
        L400 553.5749637621091
        L266.9999915013858 476.787485028613
        V323.212527561621
        L400 246.425048828125Z
      "
      opacity='0.59'
      transform='rotate(70, 400, 400)'
      >
    </path>
    <path
      d="
        M400 257.3946838378906
        L523.5000078915702 328.69734266185117
        V471.30266030977236
        L400 542.6053191337329
        L276.4999921084297 471.30266030977236
        V328.69734266185117
        L400 257.3946838378906Z
      "
      opacity='0.55'
      transform='rotate(65, 400, 400)'
      >
    </path>
    <path
      d="
        M400 268.36431884765625
        L514.0000072845264 334.1821577620814
        V465.8178355909317
        L400 531.6356745053567
        L285.9999927154736 465.8178355909317
        V334.1821577620814
        L400 268.36431884765625Z
      "
      opacity='0.50'
      transform='rotate(60, 400, 400)'
      >
    </path>
    <path
      d="
        M400 279.33396911621094
        L504.5000066774826 339.66698812110064
        V460.33302613088006
        L400 520.6660451357698
        L295.4999933225174 460.33302613088006
        V339.66698812110064
        L400 279.33396911621094Z
      "
      opacity='0.46'
      transform='rotate(55, 400, 400)'
      >
    </path>
    <path
      d="
        M400 290.30360412597656
        L495.0000060704387 345.15180322133085
        V454.84820141203943
        L400 509.6964005073937
        L304.9999939295613 454.84820141203943
        V345.15180322133085
        L400 290.30360412597656Z
      "
      opacity='0.42'
      transform='rotate(50, 400, 400)'
      >
    </path>
    <path
      d="
        M400 301.2732391357422
        L485.5000054633948 350.63661832156106
        V449.36337669319875
        L400 498.7267558790176
        L314.4999945366052 449.36337669319875
        V350.63661832156106
        L400 301.2732391357422Z
      "
      opacity='0.38'
      transform='rotate(45, 400, 400)'
      >
    </path>
    <path
      d="
        M400 312.2428741455078
        L476.000004856351 356.12143342179127
        V443.87855197435806
        L400 487.7571112506415
        L323.999995143649 443.87855197435806
        V356.12143342179127
        L400 312.2428741455078Z
      "
      opacity='0.34'
      transform='rotate(40, 400, 400)'
      >
    </path>
    <path
      d="
        M400 323.2125244140625
        L466.50000424930704 361.6062637808105
        V438.3937425143065
        L400 476.78748188105453
        L333.4999957506929 438.3937425143065
        V361.6062637808105
        L400 323.2125244140625Z
      "
      opacity='0.30'
      transform='rotate(35, 400, 400)'
      >
    </path>
    <path
      d="
        M400 334.1821594238281
        L457.0000036422632 367.0910788810407
        V432.90891779546587
        L400 465.8178372526784
        L342.9999963577368 432.90891779546587
        V367.0910788810407
        L400 334.1821594238281Z
      "
      opacity='0.26'
      transform='rotate(30, 400, 400)'
      >
    </path>
    <path
      d="
        M400 345.15179443359375
        L447.5000030352194 372.5758939812709
        V427.4240930766252
        L400 454.8481926243023
        L352.4999969647807 427.4240930766252
        V372.5758939812709
        L400 345.15179443359375Z
      "
      opacity='0.22'
      transform='rotate(25, 400, 400)'
      >
    </path>
    <path
      d="
        M400 356.12144470214844
        L438.0000024281755 378.06072434029016
        V421.93928361657356
        L400 443.8785632547153
        L361.9999975718245 421.93928361657356
        V378.06072434029016
        L400 356.12144470214844Z
      "
      opacity='0.17'
      transform='rotate(20, 400, 400)'
      >
    </path>
    <path
      d="
        M400 367.09107971191406
        L428.5000018211316 383.5455394405204
        V416.45445889773293
        L400 432.9089186263392
        L371.4999981788684 416.45445889773293
        V383.5455394405204
        L400 367.09107971191406Z
      "
      opacity='0.13'
      transform='rotate(15, 400, 400)'
      >
    </path>
    <path
      d="
        M400 378.0607147216797
        L419.0000012140877 389.0303545407505
        V410.96963417889225
        L400 421.93927399796314
        L380.9999987859123 410.96963417889225
        V389.0303545407505
        L400 378.0607147216797Z
      "
      opacity='0.09'
      transform='rotate(10, 400, 400)'
      >
    </path>
    <path
      d="
        M400 389.0303649902344
        L409.5000006070439 394.5151848997698
        V405.4848247188407
        L400 410.9696446283761
        L390.4999993929561 405.4848247188407
        V394.5151848997698
        L400 389.0303649902344Z
      "
      opacity='0.05'
      transform='rotate(5, 400, 400)'
      >
    </path>
  </g>
  <g id='outlines'
    fill='none'
    stroke='antiquewhite'
    stroke-linecap='round'
    stroke-linejoin='round'
    >
    <polyline
      points='
        400,130
        635,265
        635,535
        400,670
        165,535
        165,265
        400,130
      '
      stroke-width='4'
      >
    </polyline>
    <polyline
      opacity='0.8'
      points='
        400,115
        645,255
        645,545
        400,685
        155,545
        155,255
        400,115
      '
      stroke-width='2'
      >
    </polyline>
  </g>
  <g id='inline'
    fill='none'
    stroke='antiquewhite'
    stroke-dasharray='5,15'
    stroke-linecap='round'
    stroke-linejoin='round'
    stroke-width='5'
    >
    <polyline
      points='
        165,265
        400,400
        400,670
      '>
    </polyline>
    <polyline
      points='
        400,400
        635,265
      '>
    </polyline>
  </g>
  <g id='flare'
    mask='url(#shape)'
    >
    <g fill='url(#flurry)'>
      <rect
        width='207'
        height='3'
        x='490.5'
        y='144.5' rx='1.5' transform='rotate(45, 594, 146)' opacity='0.40'
        >
      </rect>
      <rect width='173' height='3' x='53.5' y='570.5' rx='1.5' transform='rotate(45, 140, 572)' opacity='0.90'
        >
      </rect>
      <rect width='372' height='3' x='20' y='202.5' rx='1.5' transform='rotate(45, 206, 204)' opacity='0.15'
        >
      </rect>
      <rect width='492' height='3' x='-96' y='738.5' rx='1.5' transform='rotate(45, 150, 740)' opacity='0.90'>
      </rect>
      <rect width='544' height='3' x='482' y='534.5' rx='1.5' transform='rotate(45, 754, 536)' opacity='0.18'>
      </rect>
      <rect width='463' height='3' x='7.5' y='690.5' rx='1.5' transform='rotate(45, 239, 692)' opacity='0.67'>
      </rect>
      
      <rect width='162' height='3' x='680' y='391.5' rx='1.5' transform='rotate(45, 761, 393)' opacity='0.10'>
      </rect>
      <rect width='182' height='3' x='-38' y='749.5' rx='1.5' transform='rotate(45, 53, 751)' opacity='0.61'
        >
      </rect>
      <rect width='251' height='3' x='618.5' y='647.5' rx='1.5' transform='rotate(45, 744, 649)' opacity='0.82'
        >
      </rect>
      <rect width='329' height='3' x='-123.5' y='236.5' rx='1.5' transform='rotate(45, 41, 238)' opacity='0.45'
        >
      </rect>
      <rect width='110' height='3' x='248' y='275.5' rx='1.5' transform='rotate(45, 303, 277)' opacity='0.89'
        >
      </rect>
      <rect width='634' height='3' x='351' y='375.5' rx='1.5' transform='rotate(45, 668, 377)' opacity='0.39'
        >
      </rect>
      <rect width='88' height='3' x='312' y='733.5' rx='1.5' transform='rotate(45, 356, 735)' opacity='0.32'
        >
      </rect>
      <rect width='191' height='3' x='466.5' y='398.5' rx='1.5' transform='rotate(45, 562, 400)' opacity='0.13'
        >
      </rect>
      <rect width="568" height="3" x="-162" y="407.5" rx="1.5" transform="rotate(45, 122, 409)" opacity="0.72">
      </rect>
      <rect width="295" height="3" x="255.5" y="381.5" rx="1.5" transform="rotate(45, 403, 383)" opacity="0.40">
      </rect>
      <rect width="204" height="3" x="-65" y="156.5" rx="1.5" transform="rotate(45, 37, 158)" opacity="0.85">
      </rect>
      <rect width="268" height="3" x="440" y="328.5" rx="1.5" transform="rotate(45, 574, 330)" opacity="0.52">
      </rect>
      <rect width="494" height="3" x="-80" y="342.5" rx="1.5" transform="rotate(45, 167, 344)" opacity="0.98">
      </rect>
      <rect width="619" height="3" x="-197.5" y="268.5" rx="1.5" transform="rotate(45, 112, 270)" opacity="0.30">
      </rect>
      <rect width="133" height="3" x="-29.5" y="656.5" rx="1.5" transform="rotate(45, 37, 658)" opacity="0.20">
      </rect>
      <rect width="284" height="3" x="177" y="556.5" rx="1.5" transform="rotate(45, 319, 558)" opacity="0.34">
      </rect>
      <rect width="133" height="3" x="558.5" y="536.5" rx="1.5" transform="rotate(45, 625, 538)" opacity="0.76">
      </rect>
      <rect width="233" height="3" x="118.5" y="765.5" rx="1.5" transform="rotate(45, 235, 767)" opacity="0.09">
      </rect>
      <rect width="454" height="3" x="361" y="461.5" rx="1.5" transform="rotate(45, 588, 463)" opacity="0.40">
      </rect>
      <rect width="197" height="3" x="512.5" y="739.5" rx="1.5" transform="rotate(45, 611, 741)" opacity="0.59">
      </rect>
      <rect width="243" height="3" x="-28.5" y="511.5" rx="1.5" transform="rotate(45, 93, 513)" opacity="0.94">
      </rect>
      <rect width="182" height="3" x="543" y="53.5" rx="1.5" transform="rotate(45, 634, 55)" opacity="0.57">
      </rect>
      <rect width="168" height="3" x="301" y="634.5" rx="1.5" transform="rotate(45, 385, 636)" opacity="0.74">
      </rect>
      <rect width="173" height="3" x="222.5" y="758.5" rx="1.5" transform="rotate(45, 309, 760)" opacity="0.38">
      </rect>
      <rect width="113" height="3" x="191.5" y="540.5" rx="1.5" transform="rotate(45, 248, 542)" opacity="0.93">
      </rect>
      <rect width="324" height="3" x="162" y="27.5" rx="1.5" transform="rotate(45, 324, 29)" opacity="0.47">
      </rect>
      <rect width="469" height="3" x="-188.5" y="340.5" rx="1.5" transform="rotate(45, 46, 342)" opacity="0.64">
      </rect>
      <rect width="569" height="3" x="-77.5" y="620.5" rx="1.5" transform="rotate(45, 207, 622)" opacity="0.46">
      </rect>
      <rect width="212" height="3" x="215" y="363.5" rx="1.5" transform="rotate(45, 321, 365)" opacity="0.72">
      </rect>
      <rect width="70" height="3" x="6" y="449.5" rx="1.5" transform="rotate(45, 41, 451)" opacity="0.37">
      </rect>
      <rect width="388" height="3" x="49" y="41.5" rx="1.5" transform="rotate(45, 243, 43)" opacity="0.88">
      </rect>
      <rect width="287" height="3" x="593.5" y="750.5" rx="1.5" transform="rotate(45, 737, 752)" opacity="0.42">
      </rect>
      <rect width="636" height="3" x="183" y="727.5" rx="1.5" transform="rotate(45, 501, 729)" opacity="0.92">
      </rect>
      <rect width="597" height="3" x="73.5" y="463.5" rx="1.5" transform="rotate(45, 372, 465)" opacity="0.74">
      </rect>
      <rect width="633" height="3" x="75.5" y="249.5" rx="1.5" transform="rotate(45, 392, 251)" opacity="0.09">
      </rect>
      <rect width="367" height="3" x="288.5" y="356.5" rx="1.5" transform="rotate(45, 472, 358)" opacity="0.34">
      </rect>
      <rect width="417" height="3" x="336.5" y="572.5" rx="1.5" transform="rotate(45, 545, 574)" opacity="0.29">
      </rect>
      <rect width="163" height="3" x="402.5" y="34.5" rx="1.5" transform="rotate(45, 484, 36)" opacity="0.16">
      </rect>
      <rect width="492" height="3" x="117" y="86.5" rx="1.5" transform="rotate(45, 363, 88)" opacity="0.30">
      </rect>
      <rect width="141" height="3" x="129.5" y="107.5" rx="1.5" transform="rotate(45, 200, 109)" opacity="0.90">
      </rect>
      <rect width="50" height="3" x="448" y="610.5" rx="1.5" transform="rotate(45, 473, 612)" opacity="0.71">
      </rect>
      <rect width="36" height="3" x="187" y="274.5" rx="1.5" transform="rotate(45, 205, 276)" opacity="0.34">
      </rect>
      <rect width="213" height="3" x="67.5" y="514.5" rx="1.5" transform="rotate(45, 174, 516)" opacity="0.80">
      </rect>
      <rect width="311" height="3" x="116.5" y="136.5" rx="1.5" transform="rotate(45, 272, 138)" opacity="0.34">
      </rect>
      <rect width="372" height="3" x="-26" y="33.5" rx="1.5" transform="rotate(45, 160, 35)" opacity="0.82">
      </rect>
      <rect width="123" height="3" x="224.5" y="462.5" rx="1.5" transform="rotate(45, 286, 464)" opacity="0.62">
      </rect>
      <rect width="165" height="3" x="490.5" y="247.5" rx="1.5" transform="rotate(45, 573, 249)" opacity="0.62">
      </rect>
      <rect width="307" height="3" x="-116.5" y="564.5" rx="1.5" transform="rotate(45, 37, 566)" opacity="0.99">
      </rect>
      <rect width="243" height="3" x="-2.5" y="642.5" rx="1.5" transform="rotate(45, 119, 644)" opacity="0.79">
      </rect>
      <rect width="529" height="3" x="421.5" y="479.5" rx="1.5" transform="rotate(45, 686, 481)" opacity="0.87">
      </rect>
      <rect width="407" height="3" x="-2.5" y="449.5" rx="1.5" transform="rotate(45, 201, 451)" opacity="0.26">
      </rect>
      <rect width="538" height="3" x="129" y="547.5" rx="1.5" transform="rotate(45, 398, 549)" opacity="0.54">
      </rect>
      <rect width="345" height="3" x="233.5" y="772.5" rx="1.5" transform="rotate(45, 406, 774)" opacity="0.24">
      </rect>
      <rect width="222" height="3" x="-70" y="38.5" rx="1.5" transform="rotate(45, 41, 40)" opacity="0.67">
      </rect>
      <rect width="334" height="3" x="-43" y="175.5" rx="1.5" transform="rotate(45, 124, 177)" opacity="0.94">
      </rect>
      <rect width="202" height="3" x="646" y="59.5" rx="1.5" transform="rotate(45, 747, 61)" opacity="0.29">
      </rect>
      <rect width="261" height="3" x="572.5" y="274.5" rx="1.5" transform="rotate(45, 703, 276)" opacity="0.99">
      </rect>
      <rect width="352" height="3" x="118" y="618.5" rx="1.5" transform="rotate(45, 294, 620)" opacity="0.29">
      </rect>
      <rect width="42" height="3" x="4" y="86.5" rx="1.5" transform="rotate(45, 25, 88)" opacity="0.50">
      </rect>
      <rect width="345" height="3" x="463.5" y="631.5" rx="1.5" transform="rotate(45, 636, 633)" opacity="0.13">
      </rect>
      <rect width="125" height="3" x="392.5" y="116.5" rx="1.5" transform="rotate(45, 455, 118)" opacity="0.13">
      </rect>
      <rect width="541" height="3" x="471.5" y="181.5" rx="1.5" transform="rotate(45, 742, 183)" opacity="0.38">
      </rect>
      <rect width="207" height="3" x="-11.5" y="28.5" rx="1.5" transform="rotate(45, 92, 30)" opacity="0.57">
      </rect>
      <rect width="360" height="3" x="225" y="698.5" rx="1.5" transform="rotate(45, 405, 700)" opacity="0.21">
      </rect>
      <rect width="447" height="3" x="89.5" y="677.5" rx="1.5" transform="rotate(45, 313, 679)" opacity="0.89">
      </rect>
      <rect width="127" height="3" x="264.5" y="188.5" rx="1.5" transform="rotate(45, 328, 190)" opacity="0.63">
      </rect>
    </g>
  </g>
</svg>
